P3
# Created by GIMP version 2.10.30 PNM plug-in
3 3
255
28
28
28
127
127
127
242
242
242
0
0
0
4
4
4
91
91
91
102
102
102
230
230
230
122
122
122
