P3
# Created by GIMP version 2.10.30 PNM plug-in
3 3
255
227
18
26
245
117
29
245
232
0
126
0
11
186
0
26
237
81
89
2
92
26
20
220
76
175
112
77
