P3
# Created by GIMP version 2.10.30 PNM plug-in
3 3
255
255
242
0
255
127
39
237
28
36
247
91
99
196
4
36
136
0
21
185
122
87
30
230
86
12
102
36
