P3
# Created by GIMP version 2.10.30 PNM plug-in
3 3
255
73
73
73
147
147
147
227
227
227
30
30
30
47
47
47
124
124
124
78
78
78
177
177
177
132
132
132
