P3
# Created by GIMP version 2.10.30 PNM plug-in
3 3
255
121
107
84
205
182
142
255
255
198
57
50
39
86
77
60
185
165
128
89
80
62
204
182
142
182
162
126
