P3
# Created by GIMP version 2.10.30 PNM plug-in
3 3
255
50
20
2
54
90
2
54
173
0
28
0
1
41
2
2
52
65
7
2
72
2
6
164
6
39
87
6
