P3
# Created by GIMP version 2.10.30 PNM plug-in
3 3
255
100
100
100
140
140
140
165
165
165
52
52
52
78
78
78
145
145
145
50
50
50
115
115
115
131
131
131
