P3
# Created by GIMP version 2.10.30 PNM plug-in
3 3
255
12
102
36
30
230
86
185
122
87
136
0
21
196
4
36
247
91
99
237
28
36
255
127
39
255
242
0
