P3
# Created by GIMP version 2.10.30 PNM plug-in
3 3
255
255
48
56
255
147
59
255
255
20
156
20
41
216
24
56
255
111
119
32
122
56
50
250
106
205
142
107
