P3
# Created by GIMP version 2.10.30 PNM plug-in
3 3
255
237
237
237
255
255
255
255
255
255
136
136
136
196
196
196
247
247
247
12
12
12
30
30
30
185
185
185
