P3
# Created by GIMP version 2.10.30 PNM plug-in
3 3
255
36
36
36
39
39
39
0
0
0
21
21
21
36
36
36
99
99
99
36
36
36
86
86
86
87
87
87
