P3
# Created by GIMP version 2.10.30 PNM plug-in
3 3
255
131
14
19
255
104
44
255
239
44
255
239
57
255
240
90
255
255
162
255
255
181
255
255
242
255
255
255
