P3
# Created by GIMP version 2.10.30 PNM plug-in
3 3
255
255
29
38
255
255
107
255
255
107
255
255
144
255
255
252
255
255
255
255
255
255
255
255
255
255
255
255
